<svg xmlns="http://www.w3.org/2000/svg" xmlns:xlink="http://www.w3.org/1999/xlink" width="30" height="24" viewBox="0 0 30 24">
  <defs>
    <clipPath id="clip-Web_1920_1">
      <rect width="30" height="24"/>
    </clipPath>
  </defs>
  <g id="Web_1920_1" data-name="Web 1920 – 1" clip-path="url(#clip-Web_1920_1)">
    <g id="Catalyst" transform="translate(0 0)">
      <path id="Path_1" data-name="Path 1" d="M20.647,12.918c-.2-.306-.423-.612-.66-.918.237-.306.459-.612.66-.919,1.472-2.24,1.753-4.25.791-5.66-.753-1.105-2.161-1.689-4.072-1.689a11.3,11.3,0,0,0-1.808.157l-.068-.15C14.347,1.33,12.753,0,11,0S7.652,1.328,6.509,3.74l-.067.149a11.326,11.326,0,0,0-1.809-.157c-1.911,0-3.32.584-4.072,1.689-.961,1.41-.681,3.42.791,5.66.2.307.423.613.66.919-.237.306-.459.612-.66.918C-.12,15.159-.4,17.17.561,18.579c.753,1.1,2.161,1.689,4.072,1.689a11.326,11.326,0,0,0,1.809-.157l.067.15C7.652,22.67,9.247,24,11,24s3.347-1.328,4.49-3.74c.024-.048.045-.1.068-.149a11.3,11.3,0,0,0,1.808.157h0c1.911,0,3.318-.584,4.071-1.689.962-1.41.681-3.42-.791-5.66ZM4.633,18.73A3.3,3.3,0,0,1,1.9,17.737c-.589-.863-.295-2.32.805-4q.17-.26.361-.52a21.528,21.528,0,0,0,2.01,1.858,19.367,19.367,0,0,0,.793,3.565A9.434,9.434,0,0,1,4.633,18.73Zm.261-5.9q-.433-.412-.818-.833.385-.42.818-.833c-.009.276-.015.553-.015.833S4.885,12.558,4.894,12.834Zm.181-3.911A21.512,21.512,0,0,0,3.067,10.78q-.19-.26-.361-.519c-1.1-1.676-1.4-3.133-.806-4a3.3,3.3,0,0,1,2.734-.993,9.623,9.623,0,0,1,1.235.086A19.349,19.349,0,0,0,5.076,8.923ZM15.07,7.546c-.234-.158-.472-.314-.715-.466-.493-.311-.993-.6-1.5-.875.577-.213,1.145-.392,1.7-.535a16.461,16.461,0,0,1,.516,1.876ZM11,1.539c1.045,0,2.12.981,2.965,2.7A21.121,21.121,0,0,0,11,5.294,21.18,21.18,0,0,0,8.034,4.236C8.88,2.52,9.954,1.539,11,1.539ZM7.444,5.67c.551.143,1.118.322,1.7.535-.5.272-1,.564-1.5.875-.242.152-.481.308-.716.466A16.2,16.2,0,0,1,7.444,5.67ZM6.929,16.456c.234.158.472.314.715.466.493.311.993.6,1.5.875-.576.213-1.145.392-1.694.535a16.251,16.251,0,0,1-.516-1.876ZM11,22.463c-1.046,0-2.121-.981-2.966-2.7A21.179,21.179,0,0,0,11,18.708a21.122,21.122,0,0,0,2.965,1.058C13.12,21.482,12.045,22.463,11,22.463Zm3.556-4.132a17.564,17.564,0,0,1-1.7-.534c.5-.272,1-.564,1.5-.875.242-.152.481-.308.715-.466a15.975,15.975,0,0,1-.516,1.875Zm.85-4.04c-.6.467-1.249.917-1.927,1.345A24.789,24.789,0,0,1,11,17.006a24.689,24.689,0,0,1-2.479-1.37Q7.5,14.994,6.593,14.29c-.074-.743-.113-1.509-.113-2.289s.039-1.546.113-2.29q.91-.7,1.928-1.345A24.689,24.689,0,0,1,11,7a24.563,24.563,0,0,1,2.478,1.37q1.018.642,1.928,1.346c.074.743.113,1.509.113,2.289s-.039,1.546-.113,2.29Zm1.96-9.02a3.3,3.3,0,0,1,2.735.994c.588.863.294,2.32-.806,4q-.17.26-.361.52a21.4,21.4,0,0,0-2.01-1.858,19.453,19.453,0,0,0-.792-3.565,9.419,9.419,0,0,1,1.234-.086Zm-.261,5.9q.433.412.819.833-.387.42-.819.833.015-.414.015-.833C17.12,11.721,17.114,11.444,17.1,11.168Zm3,6.569a3.3,3.3,0,0,1-2.734.993h0a9.639,9.639,0,0,1-1.236-.086,19.348,19.348,0,0,0,.794-3.565,21.765,21.765,0,0,0,2.008-1.857c.128.173.247.346.361.519,1.1,1.676,1.4,3.133.807,4Z" transform="translate(0)" fill="#303030" stroke="#fff" stroke-width="0.4"/>
      <circle id="Ellipse_1" data-name="Ellipse 1" cx="2.667" cy="2.667" r="2.667" transform="translate(8.333 9.333)" fill="#303030"/>
    </g>
  </g>
</svg>
