<svg xmlns="http://www.w3.org/2000/svg" xmlns:xlink="http://www.w3.org/1999/xlink" width="32" height="32" viewBox="0 0 32 32">
    <defs>
        <path id="prefix__a" d="M6.062 7.98c.103-.105 2.613-2.623 5.154-1.944 2.386.638 4.083 2.846 4.154 2.938l.337.446-2.132 2.257-.957-.907 1.34-1.417c-.558-.601-1.705-1.676-3.082-2.042-1.807-.486-3.858 1.576-3.88 1.598l-3.931 3.927s-1.49 1.632-1.412 3.523c.041.983.51 1.89 1.39 2.693 3.117 2.845 5.915.136 6.033.02l1.632-1.628.93.935-1.633 1.628c-.77.763-2.24 1.66-3.98 1.66-1.208 0-2.547-.433-3.87-1.64C1.002 18.973.39 17.754.337 16.404.241 13.957 2.041 12 2.12 11.918zm5.93-5.986c1.305-1.296 4.624-2.968 7.853-.021 1.153 1.052 1.764 2.271 1.818 3.621.096 2.447-1.704 4.403-1.782 4.484l-3.945 3.941c-.09.091-2.054 2.057-4.256 2.057-.296 0-.595-.035-.896-.115-2.386-.635-4.083-2.844-4.154-2.936l-.332-.438 2.063-2.265.973.889-1.3 1.428c.555.6 1.707 1.68 3.09 2.048 1.67.453 3.584-1.313 3.848-1.567l.03-.03 3.933-3.928s1.49-1.632 1.412-3.524c-.041-.982-.51-1.887-1.39-2.692-3.093-2.826-5.915-.133-6.037-.016l-1.782 1.78-.932-.932z"/>
    </defs>
    <g fill="none" fill-rule="evenodd" transform="translate(5 5)">
        <mask id="prefix__b" fill="#fff">
            <use xlink:href="#prefix__a"/>
        </mask>
        <use fill="#303030" xlink:href="#prefix__a"/>
        <g mask="url(#prefix__b)">
            <path fill="#303030" d="M0 0H32V32H0z" transform="translate(-5 -5)"/>
        </g>
    </g>
</svg>
