<svg xmlns="http://www.w3.org/2000/svg" xmlns:xlink="http://www.w3.org/1999/xlink" width="30" height="24" viewBox="0 0 30 24">
  <defs>
    <clipPath id="clip-Web_1920_1">
      <rect width="30" height="24"/>
    </clipPath>
  </defs>
  <g id="Web_1920_1" data-name="Web 1920 – 1" clip-path="url(#clip-Web_1920_1)">
    <g id="feedstock" transform="translate(-5.333 -3.667)">
      <path id="Path_1" data-name="Path 1" d="M3.361,12a.709.709,0,0,0,.491-.2.645.645,0,0,0,0-.942.715.715,0,0,0-.981,0,.658.658,0,0,0-.2.471.65.65,0,0,0,.2.471.711.711,0,0,0,.491.2Zm1.39-1.333a.706.706,0,0,0,.49-.2.646.646,0,0,0,0-.942.712.712,0,0,0-.981,0,.645.645,0,0,0,0,.942.708.708,0,0,0,.49.2Zm13.889,0a.709.709,0,0,0,.491-.2.645.645,0,0,0,0-.942.712.712,0,0,0-.981,0,.645.645,0,0,0,0,.942A.709.709,0,0,0,18.639,10.667ZM15.861,12a.709.709,0,0,0,.491-.2.645.645,0,0,0,0-.942.715.715,0,0,0-.981,0,.648.648,0,0,0,0,.942.711.711,0,0,0,.491.2Zm1.39,1.333a.705.705,0,0,0,.49-.195.646.646,0,0,0,0-.942.712.712,0,0,0-.981,0,.645.645,0,0,0,0,.942.712.712,0,0,0,.49.195ZM11.694,12a.709.709,0,0,0,.491-.2.645.645,0,0,0,0-.942.715.715,0,0,0-.981,0,.658.658,0,0,0-.2.471.65.65,0,0,0,.2.471.711.711,0,0,0,.491.2Zm-1.389,1.333a.708.708,0,0,0,.491-.195.645.645,0,0,0,0-.942.712.712,0,0,0-.981,0,.645.645,0,0,0,0,.942A.712.712,0,0,0,10.306,13.333ZM4.75,14.667a.706.706,0,0,0,.49-.2.646.646,0,0,0,0-.942.712.712,0,0,0-.981,0,.645.645,0,0,0,0,.942.708.708,0,0,0,.49.2Z" transform="translate(5.333 6.9)" fill="#303030"/>
      <path id="Path_2" data-name="Path 2" d="M20.5,7.1H19.72v-6a.4.4,0,0,1,.4-.4A.354.354,0,0,0,20.48.35.354.354,0,0,0,20.123,0H14.8a.354.354,0,0,0-.357.35A.354.354,0,0,0,14.8.7a.4.4,0,0,1,.4.4v6H13.257v-6a.4.4,0,0,1,.4-.4.354.354,0,0,0,.357-.35A.354.354,0,0,0,13.661,0H8.34a.354.354,0,0,0-.357.35A.353.353,0,0,0,8.339.7a.4.4,0,0,1,.4.4v6H6.794v-6A.4.4,0,0,1,7.2.7.353.353,0,0,0,7.555.35.353.353,0,0,0,7.2,0H1.877A.354.354,0,0,0,1.52.35.354.354,0,0,0,1.877.7a.4.4,0,0,1,.4.4v6H1.5A1.488,1.488,0,0,0,0,8.566v8.216a1.485,1.485,0,0,0,1.5,1.471H1.52v.4a.357.357,0,0,0,.714,0v-.4H19.767v.4a.356.356,0,0,0,.713,0v-.4H20.5A1.485,1.485,0,0,0,22,16.782V8.566A1.485,1.485,0,0,0,20.5,7.1ZM19.083.7a1.079,1.079,0,0,0-.075.4V5.891c-.031-.015-.062-.034-.095-.053a1.532,1.532,0,0,0-1.635,0,.8.8,0,0,1-.9,0,1.539,1.539,0,0,0-.46-.2V1.1a1.08,1.08,0,0,0-.076-.4h3.24ZM15.919,6.386c.03.015.06.034.093.053a1.525,1.525,0,0,0,1.634,0,.813.813,0,0,1,.9,0,1.474,1.474,0,0,0,.461.2V7.1H15.919V6.386Zm0,1.41h3.089v6.372a1.545,1.545,0,0,1-3.089,0V7.8ZM9.38.7h3.24a1.059,1.059,0,0,0-.076.4v6H9.457v-6A1.08,1.08,0,0,0,9.381.7Zm.075,9.047c.031.016.06.034.093.053a1.525,1.525,0,0,0,1.634,0,.751.751,0,0,1,.451-.136.74.74,0,0,1,.451.136,1.485,1.485,0,0,0,.461.2v4.17a1.545,1.545,0,0,1-3.089,0V9.747Zm3.089-.494c-.031-.016-.061-.034-.094-.054a1.532,1.532,0,0,0-1.635,0,.806.806,0,0,1-.9,0,1.527,1.527,0,0,0-.46-.2V7.8h3.089V9.254ZM2.918.7h3.24a1.08,1.08,0,0,0-.075.4v6H2.994v-6A1.059,1.059,0,0,0,2.917.7ZM2.995,9l.093.053A1.426,1.426,0,0,0,3.9,9.29a1.435,1.435,0,0,0,.817-.236.808.808,0,0,1,.9,0,1.534,1.534,0,0,0,.461.2v4.916a1.545,1.545,0,0,1-3.089,0V9Zm3.089-.494-.095-.053a1.426,1.426,0,0,0-.817-.237,1.426,1.426,0,0,0-.817.237A.751.751,0,0,1,3.9,8.59a.741.741,0,0,1-.45-.136,1.489,1.489,0,0,0-.46-.2V7.8H6.083Zm15.2,8.276a.778.778,0,0,1-.784.771H1.5a.778.778,0,0,1-.784-.771V8.566A.778.778,0,0,1,1.5,7.8h.784v6.372a2.257,2.257,0,0,0,4.514,0V7.8H8.743v6.372a2.257,2.257,0,0,0,4.514,0V7.8h1.949v6.372a2.257,2.257,0,0,0,4.514,0V7.8H20.5a.778.778,0,0,1,.784.771v8.216Z" transform="translate(5.333 6.667)" fill="#303030" stroke="#303030" stroke-width="0.3"/>
    </g>
  </g>
</svg>
