<svg xmlns="http://www.w3.org/2000/svg" xmlns:xlink="http://www.w3.org/1999/xlink" width="30" height="24" viewBox="0 0 30 24">
  <defs>
    <clipPath id="clip-Web_1920_1">
      <rect width="30" height="24"/>
    </clipPath>
  </defs>
  <g id="Web_1920_1" data-name="Web 1920 – 1" clip-path="url(#clip-Web_1920_1)">
    <g id="inventory" transform="translate(-0.921 -0.92)">
      <path id="Path_1" data-name="Path 1" d="M2.125,16h-.75c-.207,0-.375.112-.375.25s.168.25.375.25h.75c.207,0,.375-.112.375-.25S2.332,16,2.125,16Zm0-1h-.75c-.207,0-.375.112-.375.25s.168.25.375.25h.75c.207,0,.375-.112.375-.25S2.332,15,2.125,15Zm6,1h-.75c-.207,0-.375.112-.375.25s.168.25.375.25h.75c.207,0,.375-.112.375-.25S8.332,16,8.125,16Zm0-1h-.75c-.207,0-.375.112-.375.25s.168.25.375.25h.75c.207,0,.375-.112.375-.25S8.332,15,8.125,15Zm6,1h-.75c-.207,0-.375.112-.375.25s.168.25.375.25h.75c.207,0,.375-.112.375-.25S14.332,16,14.125,16Zm0-1h-.75c-.207,0-.375.112-.375.25s.168.25.375.25h.75c.207,0,.375-.112.375-.25S14.332,15,14.125,15Z" transform="translate(1 6.844)" fill="#303030"/>
      <path id="Path_2" data-name="Path 2" d="M23.486,15l.435,8.525-23.565.4L-.079,15.4l3.829-.4V7.472l3.824-.4V.327L15.837-.08l.426,7.143h3.4l.424,7.931h3.4ZM12.444,8.056V15h6.6V8.056H17.1l-.427,2.4-2.3-.431V8.056Zm2.974,0V9.444h.652Zm-.2-.991V.918H13.272l-.43,1.6-2.295-.428V.918H8.622V7.065h6.6Zm-7.448.991V9.444h.652ZM11.4,15V8.056H9.455l-.427,2.4-2.3-.431V8.056H4.8V15h6.6Zm-7.449.991v1.388H4.6Zm3.626,6.94v-6.94H5.63l-.427,2.4-2.3-.431V15.987H.974v6.94h6.6Zm7.646,0v-6.94H13.278l-.428,2.4-2.3-.431V15.987H8.622v6.94Zm1.048-6.94v6.94h6.6v-6.94H20.925l-.427,2.4-2.3-.431V15.987H16.269Z" transform="translate(1 1)" fill="#303030" stroke="#303030" stroke-width="0.15"/>
    </g>
  </g>
</svg>
