<svg xmlns="http://www.w3.org/2000/svg" xmlns:xlink="http://www.w3.org/1999/xlink" width="30" height="24" viewBox="0 0 30 24">
  <defs>
    <clipPath id="clip-Web_1920_1">
      <rect width="30" height="24"/>
    </clipPath>
  </defs>
  <g id="Web_1920_1" data-name="Web 1920 – 1" clip-path="url(#clip-Web_1920_1)">
    <g id="Lims" transform="translate(-6.667 -5.332)">
      <path id="Path_1" data-name="Path 1" d="M22.766,20.794,15.945,8.423a4.423,4.423,0,0,1-.571-2.152V3a1.17,1.17,0,0,1,.52-.932A1.427,1.427,0,0,0,16.527.933V.468C16.527.209,16.245,0,15.9,0H7.1c-.348,0-.63.21-.63.469V.931a1.425,1.425,0,0,0,.633,1.136A1.171,1.171,0,0,1,7.623,3V6.27a4.418,4.418,0,0,1-.569,2.152l-1.874,3.4,0,0L.235,20.792A1.828,1.828,0,0,0,.529,22.97,3.513,3.513,0,0,0,3.125,24H19.876A3.51,3.51,0,0,0,22.47,22.97a1.829,1.829,0,0,0,.3-2.177ZM8.22,8.78a5.209,5.209,0,0,0,.663-2.523V2.966A2.015,2.015,0,0,0,8,1.36.607.607,0,0,1,7.732.889h7.535A.6.6,0,0,1,15,1.361a2.015,2.015,0,0,0-.888,1.6v3.29a5.223,5.223,0,0,0,.663,2.523L16.3,11.555H6.7L8.22,8.779Zm13.2,13.713a2.054,2.054,0,0,1-1.547.619H3.125a2.055,2.055,0,0,1-1.548-.619,1.115,1.115,0,0,1-.3-.981H2.317c.348,0,.629-.212.629-.473s-.281-.473-.629-.473h-.58l.724-1.322H3.523c.348,0,.63-.212.63-.473s-.283-.473-.63-.473H2.979L3.7,16.979H4.794c.348,0,.629-.213.629-.473s-.281-.473-.629-.473H4.218l.723-1.322H6.064c.348,0,.63-.212.63-.473s-.283-.473-.63-.473H5.459l.723-1.322H16.817L21.6,21.184A1.091,1.091,0,0,1,21.423,22.493Z" transform="translate(6.667 5.333)"/>
      <path id="Path_2" data-name="Path 2" d="M16.937,12C18.075,12,19,12.555,19,13.236s-.924,1.237-2.062,1.237a3.169,3.169,0,0,1-1.075-.181l-.673.368a1.338,1.338,0,0,1,.461.962c0,1-1.361,1.818-3.034,1.818a4.853,4.853,0,0,1-1.029-.108l-.6.488a1.144,1.144,0,0,1,.733.944c0,.681-.926,1.236-2.064,1.236s-2.064-.555-2.064-1.236.926-1.237,2.064-1.237a3.3,3.3,0,0,1,.7.073l.579-.468c-.812-.326-1.347-.881-1.347-1.51a1.075,1.075,0,0,1,.04-.3l-1.683-.24a2.407,2.407,0,0,1-1.877.724C4.926,15.811,4,15.256,4,14.575s.926-1.237,2.064-1.237,2.062.555,2.062,1.237a.794.794,0,0,1,0,.088l1.705.245a3.488,3.488,0,0,1,2.79-1.1,4.26,4.26,0,0,1,2.115.516l.585-.32a.982.982,0,0,1-.442-.764c0-.681.926-1.236,2.064-1.236ZM9.667,18c-.736,0-1.334.359-1.334.8s.6.8,1.334.8S11,19.241,11,18.8,10.4,18,9.667,18Zm2.957-3.75c-1.263,0-2.29.617-2.29,1.375S11.361,17,12.626,17s2.292-.617,2.292-1.375-1.029-1.375-2.292-1.375ZM6.083,13.8c-.734,0-1.334.359-1.334.8s.6.8,1.334.8,1.334-.359,1.334-.8S6.819,13.8,6.083,13.8Zm10.834-1.35c-.734,0-1.334.359-1.334.8s.6.8,1.334.8,1.334-.359,1.334-.8S17.653,12.45,16.917,12.45Z" transform="translate(6.667 8)"/>
    </g>
  </g>
</svg>
