<svg xmlns="http://www.w3.org/2000/svg" xmlns:xlink="http://www.w3.org/1999/xlink" width="24" height="24" viewBox="0 0 24 24">
    <defs>
        <path id="a" d="M8.297 9.734c.077-.078 1.96-1.966 3.865-1.457 1.646.44 2.855 1.877 3.08 2.158l.036.046.253.334-1.6 1.693-.718-.68 1.006-1.063c-.419-.451-1.28-1.257-2.312-1.532-1.355-.364-2.894 1.183-2.91 1.198l-2.949 2.946s-1.116 1.224-1.058 2.642c.03.738.382 1.417 1.043 2.02 2.337 2.134 4.436.102 4.524.015l1.224-1.221.697.7-1.225 1.222C10.676 19.328 9.573 20 8.27 20c-.906 0-1.91-.324-2.902-1.23-.865-.79-1.325-1.705-1.364-2.717-.072-1.835 1.278-3.302 1.336-3.364zm4.448-4.489c.978-.972 3.467-2.225 5.888-.015.865.789 1.324 1.703 1.364 2.716.072 1.835-1.278 3.301-1.336 3.363l-2.959 2.955c-.067.069-1.54 1.543-3.192 1.543-.222 0-.446-.026-.672-.086-1.79-.477-3.062-2.133-3.116-2.202l-.249-.329 1.548-1.698.73.666-.975 1.071c.416.45 1.28 1.26 2.317 1.537 1.342.363 2.894-1.183 2.909-1.199l2.95-2.945s1.116-1.225 1.058-2.644c-.03-.736-.382-1.414-1.043-2.019-2.319-2.119-4.436-.1-4.527-.012l-1.337 1.335-.699-.699z"/>
    </defs>
    <g fill="none" fill-rule="evenodd">
        <mask id="b" fill="#fff">
            <use xlink:href="#a"/>
        </mask>
        <use fill="#303030" xlink:href="#a"/>
        <g fill="#303030" mask="url(#b)">
            <path d="M0 0h24v24H0z"/>
        </g>
    </g>
</svg>
