<svg xmlns="http://www.w3.org/2000/svg" width="90" height="17" viewBox="0 0 90 17">
    <path fill="#EE3124" fill-rule="evenodd" d="M7.173.333h4.035v13.002H7.173V7.432H4.035v5.903H0V.333h4.035v5.455h3.138V.333zm15.318 5.68c.748 1.27.822 3.063.3 4.557-.524 1.495-1.57 2.242-2.242 2.616-.673.373-1.794.597-2.84.597-1.046 0-2.466-.224-3.362-.971-.897-.747-1.57-1.495-1.794-2.615-.299-1.121-.448-2.99.673-4.558 1.12-1.57 2.615-1.794 3.288-1.943.597-.075.971-.075 1.046-.075 0 0 1.27-.075 2.316.374 1.046.299 1.868.747 2.615 2.017zm-3.437 1.27c0-.748-.15-1.27-.224-1.57-.224-.523-.523-1.046-1.12-1.046h-.225c-.299.075-.598.374-.897.972-.224.523-.224 1.345-.224 2.465v1.047c0 1.718.15 2.241.523 2.764.224.3.449.523.747.523.225 0 .449-.074.673-.224.598-.523.747-1.569.747-1.868V7.282zm13.6-3.438c-1.345-.598-2.69-.224-3.438.15-.747.373-1.27 1.12-1.27 1.12v-1.27H24.21v9.49h3.736v-6.8c0-.15.448-.672.971-.896.524-.3 1.121-.15 1.345.15.3.373.3.746.3.97v6.576h3.735V6.087c-.074-.448-.298-1.644-1.643-2.242zM45.43 6.087c.673 1.345.598 3.064.598 3.064h-6.65v1.942s.074.374.224.598c.15.224.672.971 2.54.673 2.018-.3 1.943-1.794 2.018-1.794h1.644s0 .972-.673 1.57c-.672.672-1.868 1.27-3.138 1.42-1.345.149-3.213.149-4.708-1.122-.896-.747-1.27-1.569-1.569-2.241-.299-.897-.448-2.69.3-4.185.746-1.494 2.614-2.69 5.005-2.615 2.242.224 3.587 1.12 4.41 2.69zm-3.288.971c0-.523-.074-1.046-.15-1.27-.074-.15-.149-.448-.522-.822-.374-.374-1.046-.374-1.345-.075-.3.225-.598.673-.673 1.27-.074.524-.074 1.495-.074 1.72h2.764v-.823zm37.436-.971c.673 1.345.598 3.064.598 3.064h-6.65v1.942s.074.374.224.598c.15.224.672.971 2.54.673 2.018-.3 1.943-1.794 2.018-1.794h1.644s0 .972-.673 1.57c-.672.672-1.868 1.27-3.138 1.42-1.345.149-3.213.149-4.708-1.122-.896-.747-1.27-1.569-1.569-2.241-.299-.897-.448-2.69.3-4.185.746-1.494 2.614-2.69 5.006-2.615 2.166.224 3.511 1.12 4.408 2.69zm-3.362.971c0-.523-.075-1.046-.15-1.27-.075-.15-.15-.448-.523-.822-.373-.374-1.046-.374-1.345-.075-.299.225-.598.673-.672 1.27-.075.524-.075 1.495-.075 1.72h2.765v-.823zm-8.22-3.213l-1.42 5.306-1.643-5.306h-3.288l-1.42 5.306-1.644-5.306h-5.156L51.558 8.33 49.84 3.77h-4.11l3.81 9.713s0 .075-.074.374c-.075.299-.374.971-.822 1.42-.448.523-.971.373-.971.373s.224-.15.299-.448c.15-.299.074-.747-.15-1.196-.224-.448-.822-.747-1.718-.597-.897.15-1.27.971-1.196 1.793.075.747.598 1.42 1.868 1.644 1.27.224 2.018-.224 2.765-.897.672-.598 1.27-2.241 1.27-2.241l3.96-9.714 2.84 9.19h3.138l1.495-5.529 1.718 5.53h3.064l2.615-9.49h-1.644v.15zm13.226 9.49h3.587V.333h-3.587v13.002zM86.005.333v13.002h3.587V.333h-3.587z"/>
</svg>
