<svg xmlns="http://www.w3.org/2000/svg" xmlns:xlink="http://www.w3.org/1999/xlink" width="30" height="24" viewBox="0 0 30 24">
  <defs>
    <clipPath id="clip-Web_1920_1">
      <rect width="30" height="24"/>
    </clipPath>
  </defs>
  <g id="Web_1920_1" data-name="Web 1920 – 1" clip-path="url(#clip-Web_1920_1)">
    <g id="Manage" transform="translate(0 -0.333)">
      <path id="Path_1" data-name="Path 1" d="M20.973,21.245A2.288,2.288,0,0,1,19.307,22L7.68,10.323l-.329.029c-2.383.214-4.022-.236-4.872-1.343a4.56,4.56,0,0,1-.692-3.186,5.358,5.358,0,0,0,1.48,1.5C5.315,8.579,7.68,4.88,7.706,4.843c.169-.267.568-.9-1.012-2.848A4.5,4.5,0,0,1,9.622,3.629a4.771,4.771,0,0,1,.517,3.694l-.12.415L21.455,19.306a2.9,2.9,0,0,1-.482,1.939Zm1.819-2.623L11.6,7.3a5.982,5.982,0,0,0-.825-4.511C9.674,1.244,7.7.431,4.931.371L3.163.333,4.411,1.6A10.924,10.924,0,0,1,6.424,4.187C5.745,5.2,4.5,6.384,4,6.088A6.782,6.782,0,0,1,2.116,3.526l-.73-1.644L.8,3.585c-.054.155-1.307,3.865.558,6.307,1.121,1.462,3.067,2.1,5.792,1.925l11.6,11.654.3-.007a3.784,3.784,0,0,0,3.026-1.3,4.533,4.533,0,0,0,.76-3.315l-.042-.222ZM3.068,22.495,2.8,22.206l1.932-3.327,1.554,1.6L3.068,22.494Zm5.51-7.042,1,1.029L6.95,19.111l1.6,1.645L2.841,24.333,1.02,22.417,4.44,16.529,5.95,18.083l2.627-2.631Zm9.34-13.541c.03-.011,4.49-.034,5.415,5.183.011.53.011.54-4.944,5.446L17.4,11.506c1.477-1.465,3.8-3.78,4.481-4.505a4.144,4.144,0,0,0-3.663-3.633L14.024,7.621,13.018,6.6l4.614-4.683Z" transform="translate(0 0)" fill="#303030"/>
    </g>
  </g>
</svg>
