<svg xmlns="http://www.w3.org/2000/svg" xmlns:xlink="http://www.w3.org/1999/xlink" width="30" height="24" viewBox="0 0 30 24">
  <defs>
    <clipPath id="clip-Web_1920_1">
      <rect width="30" height="24"/>
    </clipPath>
  </defs>
  <g id="Web_1920_1" data-name="Web 1920 – 1" clip-path="url(#clip-Web_1920_1)">
    <g id="project" transform="translate(-0.333 2.333)">
      <g id="Group_1" data-name="Group 1" transform="translate(4.237 5.49)">
        <path id="Path_1" data-name="Path 1" d="M16.5.1h-5.7A1.132,1.132,0,0,0,9.628,1.271a.633.633,0,0,1-.59.587H1.768A1.132,1.132,0,0,0,.59,3.03V13.1a1.133,1.133,0,0,0,1.18,1.174H16.506a1.134,1.134,0,0,0,1.18-1.174V1.173A1.114,1.114,0,0,0,16.506.1l.59,13a.632.632,0,0,1-.59.587H1.768a.633.633,0,0,1-.59-.587V3.032a.634.634,0,0,1,.59-.588h7.27a1.133,1.133,0,0,0,1.18-1.173.632.632,0,0,1,.589-.587h5.7a.633.633,0,0,1,.59.587V13.1Z" transform="translate(-0.59 -0.098)" fill="#fff" fill-rule="evenodd"/>
        <path id="Path_2" data-name="Path 2" d="M16.5.1h-5.7A1.132,1.132,0,0,0,9.628,1.271a.633.633,0,0,1-.59.587H1.768A1.132,1.132,0,0,0,.59,3.03V13.1a1.133,1.133,0,0,0,1.18,1.174H16.506a1.134,1.134,0,0,0,1.18-1.174V1.173A1.114,1.114,0,0,0,16.506.1l.59,13a.632.632,0,0,1-.59.587H1.768a.633.633,0,0,1-.59-.587V3.032a.634.634,0,0,1,.59-.588h7.27a1.133,1.133,0,0,0,1.18-1.173.632.632,0,0,1,.589-.587h5.7a.633.633,0,0,1,.59.587V13.1Z" transform="translate(-0.59 -0.098)" fill="rgba(0,0,0,0)" stroke="#303030" stroke-width="1" fill-rule="evenodd"/>
      </g>
      <path id="Path_3" data-name="Path 3" d="M.617,14.08h1.13c.206,0,.308.1.308.293a.322.322,0,0,1-.308.294H.308c-.206,0-.308-.1-.308-.294V.293C0,.1.1,0,.308,0H19c.207,0,.309.1.309.293V2.151c0,.2-.1.293-.308.293s-.308-.1-.308-.293V.587H.617Z" transform="translate(0.333 0.667)" fill="#303030" fill-rule="evenodd"/>
      <path id="Path_4" data-name="Path 4" d="M10.365,6.933H5.635c-.2,0-.3.134-.3.4,0,.134.2.4.3.4h4.73q.3,0,.3-.4C10.667,7.067,10.566,6.933,10.365,6.933Zm0,2.667H5.635q-.3,0-.3.4t.3.4h4.73q.3,0,.3-.4T10.365,9.6Z" transform="translate(0.563 1.006)" fill="#303030" fill-rule="evenodd"/>
    </g>
  </g>
</svg>
