<svg xmlns="http://www.w3.org/2000/svg" xmlns:xlink="http://www.w3.org/1999/xlink" width="30" height="28" viewBox="0 0 30 28">
  <defs>
    <clipPath id="clip-Web_1920_1">
      <rect width="30" height="28"/>
    </clipPath>
  </defs>
  <g id="Web_1920_1" data-name="Web 1920 – 1" clip-path="url(#clip-Web_1920_1)">
    <g id="report" opacity="0.75">
      <path id="Path_1" data-name="Path 1" d="M22,5.667a.641.641,0,0,0-.2-.457L16.54.193A.69.69,0,0,0,16.055,0H1.446A1.417,1.417,0,0,0,0,1.38V26.619A1.416,1.416,0,0,0,1.446,28H20.554A1.417,1.417,0,0,0,22,26.62V5.668ZM16.742,2.238l2.913,2.78H16.814a.07.07,0,0,1-.072-.069ZM20.626,26.62a.07.07,0,0,1-.072.069H1.446a.07.07,0,0,1-.072-.069V1.381a.07.07,0,0,1,.072-.069H15.368V4.95a1.416,1.416,0,0,0,1.446,1.38h3.812V26.621Z" fill="#2a2a2b"/>
      <path id="Path_2" data-name="Path 2" d="M16.34,9H4.66C4.3,9,4,9.448,4,10s.3,1,.66,1H16.34c.364,0,.66-.448.66-1S16.7,9,16.34,9Zm0,4H4.66C4.3,13,4,13.448,4,14s.3,1,.66,1H16.34c.364,0,.66-.448.66-1S16.7,13,16.34,13Zm0,5H4.66C4.3,18,4,18.448,4,19s.3,1,.66,1H16.34c.364,0,.66-.448.66-1S16.7,18,16.34,18Zm-5.985,4H4.645C4.29,22,4,22.448,4,23s.289,1,.645,1h5.71c.356,0,.645-.448.645-1S10.711,22,10.355,22Z" transform="translate(0 -1.2)" fill="#2a2a2b"/>
    </g>
  </g>
</svg>
